<?xml version="1.0" encoding="UTF-8" standalone="no"?>
<!-- Created with Inkscape (http://www.inkscape.org/) -->

<svg
   version="1.1"
   id="svg1"
   width="2048"
   height="2048"
   viewBox="0 0 2048 2048"
   sodipodi:docname="baldwin.svg"
   xml:space="preserve"
   inkscape:version="1.3.2 (091e20e, 2023-11-25)"
   inkscape:export-filename="baldwin.png"
   inkscape:export-xdpi="96"
   inkscape:export-ydpi="96"
   xmlns:inkscape="http://www.inkscape.org/namespaces/inkscape"
   xmlns:sodipodi="http://sodipodi.sourceforge.net/DTD/sodipodi-0.dtd"
   xmlns="http://www.w3.org/2000/svg"
   xmlns:svg="http://www.w3.org/2000/svg"><defs
     id="defs1" /><sodipodi:namedview
     id="namedview1"
     pagecolor="#ffffff"
     bordercolor="#666666"
     borderopacity="1.0"
     inkscape:showpageshadow="2"
     inkscape:pageopacity="0.0"
     inkscape:pagecheckerboard="0"
     inkscape:deskcolor="#d1d1d1"
     inkscape:zoom="0.65186406"
     inkscape:cx="1258.698"
     inkscape:cy="1619.9697"
     inkscape:window-width="1512"
     inkscape:window-height="859"
     inkscape:window-x="0"
     inkscape:window-y="33"
     inkscape:window-maximized="0"
     inkscape:current-layer="g1" /><g
     inkscape:groupmode="layer"
     inkscape:label="Image"
     id="g1"><path
       style="fill:#000000"
       d="M 1.0575e-5,1024 V -2.425e-5 H 1024 2048 V 1024 2048 H 1024 1.0575e-5 Z M 1048.4297,1651.3691 c 19.2994,-4.5866 35.6751,-14.6543 43.1842,-26.5495 9.5543,-15.1351 21.4966,-40.3511 40.3632,-85.227 4.3421,-10.3279 12.674,-34.7446 15.3874,-45.0926 8.7918,-33.5286 11.615,-53.6915 11.6219,-83 0,-17.5835 -2.2644,-45.3389 -4.5534,-55.7114 -4.6302,-20.9808 -13.9291,-46.6127 -27.0636,-74.5987 -2.4032,-5.1206 -4.3694,-9.5382 -4.3694,-9.8169 0,-0.2787 -6.0267,-12.9641 -13.3927,-28.1898 -30.5943,-63.2395 -33.3135,-85.881 -19.1173,-159.1832 9.5271,-49.1928 10.621,-57.4411 11.2249,-84.63288 0.567,-25.53173 -0.1763,-31.85144 -5.6943,-48.41615 -4.2652,-12.80395 -9.0368,-20.1614 -20.4266,-31.49636 -16.1094,-16.03181 -25.9442,-19.99213 -49.2081,-19.8154 -15.5576,0.11819 -21.711,1.52843 -33.06573,7.57798 -7.96816,4.24522 -20.63716,17.37396 -26.39566,27.35344 -18.1862,31.51641 -19.3275,62.92849 -4.9245,135.53747 9.698,48.8903 11.843,74.5653 8.4911,101.6394 -1.163,9.3944 -2.6204,15.3465 -6.3588,25.9701 -6.3283,17.9834 -21.494,51.5204 -38.11325,84.2824 -8.50369,16.7636 -17.82655,40.6959 -22.39913,57.5 -8.33516,30.6314 -10.68858,79.2543 -5.51777,114 5.34127,35.8912 13.1704,60.6056 37.38045,118 4.7603,11.2852 17.573,36.5435 24.8561,49 8.6281,14.757 22.3708,25.078 39.20086,29.4406 18.55503,4.8097 32.89933,5.2288 48.89013,1.4285 z M 799.00001,1412.9899 c 17.05964,-2.6116 29.47863,-8.6985 38.74424,-18.9899 4.93688,-5.4834 14.53538,-22.3915 21.30438,-37.5283 20.11435,-44.9796 34.36567,-85.3031 38.51333,-108.9717 0.28914,-1.65 0.93305,-4.575 1.4309,-6.5 4.23739,-16.3844 5.26044,-60.2386 1.98603,-85.1336 -3.87758,-29.4809 -9.43219,-45.2566 -37.45163,-106.3664 -13.1905,-28.7682 -14.99147,-33.051 -21.65647,-51.49998 -3.41331,-9.4482 -8.00415,-33.84942 -8.56037,-45.50005 -0.58916,-12.34036 2.30606,-36.50868 7.72672,-64.5 9.52642,-49.19281 9.8608,-51.31797 11.48602,-73 0.80099,-10.68599 -0.91806,-30.6406 -3.6575,-42.4561 -7.93374,-34.219 -31.45086,-54.94151 -64.94981,-57.23161 -13.98727,-0.95622 -28.01896,2.97464 -39.23623,10.99169 -7.22645,5.1648 -15.11462,13.10899 -20.10501,20.24781 -11.17254,15.98246 -16.88551,46.65777 -13.58603,72.94902 2.23252,17.78942 5.13965,36.10606 8.00307,50.42412 4.60628,23.03291 8.83003,46.78977 10.05853,56.57507 1.84818,14.72131 1.36131,36.66494 -1.07953,48.6549 -3.27881,16.10635 -14.34028,47.66293 -22.20425,63.34513 -16.79668,33.4957 -31.0068,68.6959 -37.13994,92 -10.87076,41.3057 -10.02124,86.2667 2.52241,133.5 2.26396,8.525 4.44094,15.95 4.83772,16.5 0.39679,0.55 1.49494,4.15 2.44035,8 0.9454,3.85 2.31754,8.35 3.0492,10 0.73165,1.65 2.55704,6.375 4.05642,10.5 3.09859,8.5246 7.13045,18.1562 12.07238,28.8391 1.86729,4.0366 3.39507,7.4825 3.39507,7.6576 0,0.5814 9.08663,19.8393 14.56612,30.8708 6.23642,12.5555 11.09028,19.3122 17.43388,24.2684 6.13329,4.7918 17.24864,9.8818 24.5,11.219 3.3,0.6085 6.9,1.2879 8,1.5098 4.15643,0.8382 27.26499,0.5796 33.5,-0.3748 z M 1297,1411.519 c 15.5927,-3.5817 26.0334,-10.8047 35.0034,-24.2161 10.8048,-16.1544 31.1494,-62.1248 42.8531,-96.83 5.9888,-17.7589 12.5832,-43.168 14.6563,-56.4729 1.9671,-12.6252 3.4802,-36.7635 2.9552,-47.1454 -0.2324,-4.595 -0.6438,-12.7131 -0.9142,-18.0401 -1.0057,-19.8092 -6.3201,-45.1215 -13.7128,-65.3145 -2.215,-6.05 -7.531,-18.425 -11.8134,-27.5 -14.8253,-31.4171 -29.962,-65.965 -34.0073,-77.61828 -1.5499,-4.465 -4.0288,-13.465 -5.5085,-20.00005 -2.3024,-10.16789 -2.7085,-14.33376 -2.8158,-28.8817 -0.1365,-18.52248 1.6048,-31.00664 10.3215,-74 15.6052,-76.96885 13.1159,-106.66183 -11.5175,-137.38524 -5.8786,-7.33191 -18.0916,-15.87981 -27,-18.89727 -9.9983,-3.38665 -16.3301,-4.14311 -27.5678,-3.29354 -18.4877,1.39769 -29.7734,6.68778 -42.7321,20.03032 -15.3948,15.8509 -21.0143,28.8984 -23.4057,54.34366 -1.715,18.24814 1.3321,49.36822 8.1955,83.70207 11.2004,56.02925 12.769,78.08082 7.4298,104.4531 -0.896,4.42585 -2.0871,8.60945 -2.6469,9.29695 -0.5597,0.6875 -0.7467,1.25 -0.4155,1.25 0.3312,0 -1.613,6.2971 -4.3204,13.99358 -4.5233,12.8587 -14.4662,35.8584 -31.561,73.0064 -11.7302,25.4905 -16.6583,38.822 -22.3684,60.5112 -2.8013,10.6407 -4.09,27.6988 -4.0409,53.4888 0.057,29.6321 1.3634,44.8339 5.3732,62.5 1.498,6.6 2.8956,12.8367 3.1056,13.8594 0.9201,4.4796 12.1874,36.4454 17.6736,50.1406 5.474,13.6647 7.3068,18.0283 11.3411,27 0.7419,1.65 2.3021,5.475 3.467,8.5 4.1337,10.7336 15.7041,31.9075 20.9598,38.3566 5.6157,6.8906 9.526,10.5629 14.3368,13.464 6.3674,3.8398 17.7537,7.9112 25.6763,9.181 8.6338,1.3839 34.3863,0.4959 43,-1.4826 z"
       id="path2" /><rect
       style="fill:#000000;stroke:#000000;stroke-width:8;stroke-opacity:0.385809"
       id="rect2"
       width="1083.0479"
       height="1150.5466"
       x="481.69553"
       y="601.35236"
       inkscape:label="rect2" /><path
       style="fill:#ffffff;stroke-width:1.20474"
       d="m 1005.12,1567.6077 c -20.45841,-3.0808 -37.24131,-9.6506 -48.33661,-18.9215 -3.3316,-2.7839 -9.0873,-9.3272 -12.7902,-14.5405 -8.8152,-12.4105 -26.1264,-43.7648 -35.0508,-63.4846 -3.9027,-8.6236 -7.6116,-16.7244 -8.2421,-18.0019 -4.4808,-9.0801 -13.70929,-31.9602 -20.06619,-49.7493 -20.837,-58.3119 -25.7429,-114.7947 -15.3497,-176.7268 5.0348,-30.0027 18.2596,-62.4291 46.65649,-114.3995 5.9165,-10.8283 22.1625,-43.9686 28.2774,-57.6837 11.6709,-26.1761 15.4949,-44.4802 15.4949,-74.16677 0,-20.3814 -4.7925,-55.2955 -11.7903,-85.8934 -1.6097,-7.0385 -3.3627,-15.4105 -3.8954,-18.6044 -0.5328,-3.1939 -1.1109,-6.3297 -1.2847,-6.9685 -0.1738,-0.6387 -1.2439,-6.3853 -2.3781,-12.7702 -5.9996,-33.7748 -6.7412,-66.30008 -1.9728,-86.52767 8.4515,-35.85186 33.1227,-64.50337 62.8337,-72.97067 10.69761,-3.04868 31.71671,-4.24792 42.84121,-2.44431 11.2586,1.82534 22.8991,5.76972 30.6249,10.37714 3.3662,2.00757 11.1797,8.56847 17.3634,14.57979 13.2499,12.88067 20.6225,25.36807 26.0173,44.0671 3.2027,11.10071 3.3532,12.89777 3.4036,40.64956 0.052,29.09466 -1.3642,44.42976 -6.1166,66.20076 -0.9761,4.4714 -3.5136,17.0147 -5.6389,27.8739 -2.1254,10.8593 -4.3967,21.8347 -5.0474,24.3898 -4.9226,19.3299 -8.1584,51.6014 -6.9808,69.6209 2.2165,33.91657 8.6851,52.85667 35.7215,104.59157 6.3426,12.1367 13.9383,27.0319 16.8793,33.1003 2.941,6.0684 7.0222,14.4306 9.0694,18.5826 7.9647,16.1545 19.0649,42.8332 21.5034,51.6831 0.8801,3.1938 2.3263,7.9159 3.2138,10.4932 7.557,21.9472 11.3972,74.0516 8.0002,108.5519 -3.159,32.0834 -13.6604,72.39 -27.8389,106.8503 -4.791,11.6444 -17.9392,41.2399 -19.4092,43.6885 -0.7221,1.2031 -3.3475,6.6298 -5.8341,12.0594 -4.8362,10.5605 -25.2222,47.6734 -29.9483,54.5214 -8.9905,13.0267 -29.5168,25.0477 -51.861,30.3718 -13.493,3.2149 -33.0288,3.8656 -48.0684,1.6007 z M 696.4046,1289.8118 c -14.8402,-1.9074 -32.6335,-8.9405 -41.3218,-16.333 -6.8548,-5.8325 -13.559,-14.2849 -17.5955,-22.1837 -1.8352,-3.5912 -6.6796,-13.0624 -10.7654,-21.0471 -10.1655,-19.8662 -27.5729,-57.2602 -30.2767,-65.0394 -1.2211,-3.5132 -2.6158,-6.9103 -3.0994,-7.5491 -0.4836,-0.6388 -1.862,-4.2973 -3.063,-8.1299 -1.2011,-3.8327 -3.818,-11.9336 -5.8155,-18.002 -7.2842,-22.1293 -12.7462,-45.6934 -15.4794,-66.7814 -0.3312,-2.5551 -0.974,-13.0078 -1.4283,-23.2283 -2.5084,-56.41967 9.6417,-98.19327 52.8666,-181.76167 9.7263,-18.8042 13.2155,-26.8019 21.5263,-49.3406 13.8894,-37.66809 15.2861,-65.37619 5.6899,-112.87578 -1.7846,-8.83352 -3.7016,-18.41282 -4.2599,-21.28733 -0.5584,-2.87449 -2.7206,-13.32724 -4.805,-23.22831 -3.5883,-17.04424 -5.8055,-30.11369 -9.1623,-54.00584 -4.0214,-28.62293 3.0948,-63.8557 16.6692,-82.52957 19.9424,-27.43409 50.7851,-41.20068 81.8762,-36.54526 14.033,2.10123 23.5146,5.10412 33.4319,10.58817 10.6305,5.87848 15.2011,9.77193 23.1847,19.74976 19.0784,23.84422 25.4382,58.70621 19.347,106.05172 -1.8189,14.13729 -2.5887,18.26502 -11.7167,62.82287 -4.7972,23.41663 -5.7985,28.80129 -7.0197,37.74603 -0.3053,2.23572 -1.2253,8.89819 -2.0446,14.8055 -2.0912,15.07807 -0.8522,32.60476 3.7801,53.46947 4.5905,20.67629 10.9836,36.77207 30.0838,75.74057 41.4239,84.5135 44.8529,93.8811 51.3299,140.22827 1.9694,14.0925 0.7761,61.6498 -1.9456,77.5373 -5.0319,29.3728 -16.3066,65.3436 -31.3073,99.8818 -35.3048,81.2874 -47.9403,98.3246 -79.9445,107.7953 -12.2444,3.6232 -43.2307,5.4441 -58.735,3.4515 z m 613.5931,-0.3908 c -17.4883,-2.1599 -34.7064,-9.2749 -44.5024,-18.3897 -10.7702,-10.0213 -24.8824,-33.0728 -37.4103,-61.1081 -2.8544,-6.3878 -6.2584,-13.8067 -7.5643,-16.4864 -1.306,-2.6798 -2.3745,-5.1909 -2.3745,-5.5805 0,-0.3895 -1.0747,-2.9007 -2.3883,-5.5805 -6.5229,-13.3076 -20.0853,-49.0915 -24.296,-64.1045 -9.208,-32.8295 -11.3171,-52.3543 -10.4777,-96.9972 0.6615,-35.17487 2.0457,-45.03117 9.6212,-68.50457 6.6593,-20.6346 12.521,-33.9406 29.584,-67.1562 2.4029,-4.6776 7.376,-14.869 11.0513,-22.6476 3.6752,-7.7786 8.4726,-17.7704 10.6609,-22.204 4.4627,-9.0419 15.6994,-37.638 18.2819,-46.52549 6.1586,-21.19429 7.501,-47.92063 3.7333,-74.33061 -1.7273,-12.10738 -11.0942,-60.7308 -12.6412,-65.62001 -1.4651,-4.63039 -6.8596,-40.67888 -8.1598,-54.52707 -2.3744,-25.29114 0.4984,-50.8393 7.6047,-67.62906 6.0128,-14.20622 25.3402,-35.36754 38.8197,-42.50299 16.1388,-8.54329 40.7239,-12.15522 59.1976,-8.69701 16.7883,3.14272 34.1372,12.66639 44.1548,24.23882 17.5956,20.32657 23.4977,33.14369 26.5139,57.57825 2.9142,23.6065 -0.2566,49.94228 -13.6695,113.53637 -9.2601,43.90465 -10.7728,54.65728 -10.6311,75.56163 0.11,16.27727 0.6334,21.23933 3.4732,32.94763 1.8388,7.58134 4.4951,16.98881 5.9029,20.90548 4.2646,11.86496 26.3537,58.71066 43.6093,92.48526 21.3832,41.8538 30.5994,75.1209 32.3366,116.72247 0.9659,23.133 -0.2805,50.9557 -2.966,66.2006 -2.5306,14.3663 -10.5826,44.6624 -14.971,56.3287 -1.8021,4.7909 -4.43,12.1077 -5.8399,16.2598 -3.1441,9.2597 -17.4207,43.1237 -22.5232,53.4251 -25.2884,51.0541 -32.7224,62.0065 -48.5431,71.5181 -4.4916,2.7004 -12.0892,6.0005 -16.8832,7.3338 -15.393,4.2808 -40.4942,5.7986 -58.7038,3.5495 z"
       id="path1" /></g></svg>
